<svg xmlns="http://www.w3.org/2000/svg" xmlns:xlink="http://www.w3.org/1999/xlink" viewBox="0,0,256,256" width="144px" height="144px"><defs><linearGradient x1="14.572" y1="38.199" x2="43.188" y2="9.583" gradientUnits="userSpaceOnUse" id="color-1"><stop offset="0" stop-color="#d31717"></stop><stop offset="1" stop-color="#55acfd"></stop></linearGradient></defs><g fill="none" fill-rule="nonzero" stroke="none" stroke-width="1" stroke-linecap="butt" stroke-linejoin="miter" stroke-miterlimit="10" stroke-dasharray="" stroke-dashoffset="0" font-family="none" font-weight="none" font-size="none" text-anchor="none" style="mix-blend-mode: normal"><g transform="scale(5.33333,5.33333)"><path d="M24.48,29.316l-9.505,9.505l-13.387,-13.387c-0.784,-0.784 -0.784,-2.054 0,-2.838l6.667,-6.667c0.784,-0.784 2.054,-0.784 2.838,0z" fill="#b74257"></path><path d="M17.797,41.642l-6.667,-6.667c-0.784,-0.784 -0.784,-2.054 0,-2.838l25.777,-25.779c0.784,-0.784 2.054,-0.784 2.838,0l6.667,6.667c0.784,0.784 0.784,2.054 0,2.838l-25.778,25.779c-0.783,0.783 -2.054,0.783 -2.837,0z" fill="url(#color-1)"></path></g></g></svg>